<?xml version="1.0" encoding="UTF-8"?>
<svg fill="none" viewBox="0 0 36 36" xmlns="http://www.w3.org/2000/svg">
<g clip-path="url(#a)">
<path d="m18.021 2.933c3.1257 3.9681 4.7942 8.8614 4.7337 13.882v1.1986l1.0313 0.6275c1.3324 0.8066 2.3262 2.0577 2.8001 3.5253-0.4161-0.3064-0.8514-0.5866-1.3034-0.8391l-2.75-1.544-0.4941 3.1163c-0.0428 0.2754-0.1002 0.5484-0.1719 0.8179h-7.7057c-0.1146-0.3525-0.2077-0.7051-0.2936-1.0717l-0.6231-2.8202-2.5351 1.4101c-0.4236 0.2368-0.83249 0.4982-1.2246 0.7826 0.48317-1.4506 1.4562-2.6946 2.7572-3.5253l0.9811-0.6275v-1.1139c0.0177-5.0008 1.7064-9.8569 4.8054-13.819h-0.0072zm0.0072-2.933c-0.1607 3.9031e-4 -0.3159 0.057986-0.4369 0.16216l-0.0644 0.056404c-4.1296 4.5471-6.4228 10.427-6.4453 16.526-1.7524 1.1193-3.0496 2.8093-3.6649 4.7747-0.61524 1.9653-0.50943 4.081 0.29893 5.9774 0.85157-1.8516 2.2751-3.3913 4.0677-4.3996 0.1798 0.7667 0.4192 1.5186 0.7161 2.2492 0.0377 0.1404 0.1212 0.2647 0.2376 0.3539 0.1165 0.0892 0.2594 0.1382 0.407 0.1396h9.9401c0.2005 0 0.401-0.1904 0.5013-0.4865 0.2898-0.6945 0.4918-1.4215 0.6015-2.1645 1.7961 1.004 3.2208 2.545 4.0677 4.3995 0.8572-1.887 0.9899-4.016 0.3735-5.992-0.6163-1.9761-1.9399-3.6648-3.725-4.753 0.0708-6.1355-2.2102-12.072-6.388-16.625-0.0623-0.068481-0.1384-0.12333-0.2235-0.16098-0.0852-0.037653-0.1774-0.057272-0.2707-0.057587h0.0072z" fill="#4EA8DE"/>
<path d="m18.021 16.16c-0.55 0-1.0878-0.1603-1.5454-0.4608-0.4577-0.3004-0.8147-0.7275-1.0262-1.2274-0.2115-0.5-0.2679-1.0503-0.1621-1.5818 0.1057-0.5314 0.3689-1.0201 0.7564-1.4045 0.3874-0.3844 0.8818-0.6473 1.4208-0.7555s1.0984-0.0569 1.6078 0.1475c0.5094 0.2043 0.946 0.5525 1.2546 1.0008 0.3087 0.4482 0.4757 0.9764 0.4799 1.5179 0.0086 0.3509-0.0532 0.7001-0.1817 1.0275-0.1285 0.3275-0.3214 0.6268-0.5674 0.8808-0.2461 0.254-0.5406 0.4579-0.8667 0.5998-0.3261 0.142-0.6774 0.2193-1.0339 0.2275-0.0451 0.0071-0.091 0.0071-0.1361 0v0.0282z" fill="#4EA8DE"/>
<path d="m21.896 27.596c-0.1792-0.0057-0.3577 0.024-0.5251 0.0872s-0.3203 0.1586-0.4497 0.2808-0.2328 0.2685-0.304 0.4305c-0.0711 0.162-0.1087 0.3364-0.1106 0.5129v4.1598c0 0.3627 0.1464 0.7106 0.407 0.9672 0.2605 0.2565 0.6139 0.4006 0.9824 0.4006 0.3684 0 0.7218-0.1441 0.9824-0.4006 0.2605-0.2566 0.4069-0.6045 0.4069-0.9672v-4.1034c0.0057-0.1759-0.0242-0.351-0.0879-0.5154-0.0638-0.1643-0.1601-0.3145-0.2834-0.4418-0.1233-0.1274-0.2712-0.2292-0.4349-0.2997s-0.34-0.1082-0.5187-0.1109h-0.0644z" fill="#5E60CE"/>
<path d="m14.161 27.596c-0.1822-0.0095-0.3645 0.0172-0.5361 0.0785-0.1715 0.0613-0.3288 0.1559-0.4624 0.2783-0.1337 0.1223-0.2409 0.2699-0.3154 0.4339-0.0746 0.164-0.1148 0.341-0.1184 0.5207v4.1598c0 0.3627 0.1464 0.7107 0.4069 0.9672 0.2606 0.2565 0.614 0.4006 0.9824 0.4006 0.3685 0 0.7219-0.1441 0.9824-0.4006 0.2606-0.2565 0.4069-0.6045 0.4069-0.9672v-4.1034c0.0058-0.1759-0.0241-0.351-0.0879-0.5154-0.0637-0.1643-0.16-0.3145-0.2834-0.4418-0.1233-0.1274-0.2711-0.2292-0.4348-0.2997s-0.3401-0.1082-0.5187-0.1109h-0.0215z" fill="#5E60CE"/>
<path d="m17.921 27.596c-0.1787-0.0038-0.3564 0.0272-0.523 0.0911-0.1665 0.0638-0.3186 0.1594-0.4477 0.2812-0.129 0.1218-0.2324 0.2674-0.3042 0.4285s-0.1107 0.3346-0.1145 0.5106v5.732c0 0.3628 0.1464 0.7107 0.407 0.9672 0.2605 0.2565 0.6139 0.4006 0.9824 0.4006 0.3684 0 0.7218-0.1441 0.9824-0.4006 0.2605-0.2565 0.4069-0.6044 0.4069-0.9672v-5.6404c0.0057-0.1758-0.0242-0.351-0.0879-0.5153-0.0638-0.1644-0.1601-0.3146-0.2834-0.4419s-0.2712-0.2292-0.4349-0.2997-0.34-0.1082-0.5187-0.1109l-0.0644-0.0352z" fill="#5E60CE"/>
</g>
<defs>
<clipPath id="a">
<rect width="36" height="36" fill="#fff"/>
</clipPath>
</defs>
</svg>
