<?xml version="1.0" encoding="UTF-8"?>
<svg enable-background="new 0 0 256 256" version="1.1" viewBox="0 0 256 256" xml:space="preserve" xmlns="http://www.w3.org/2000/svg">
<metadata> Svg Vector Icons : http://www.onlinewebfonts.com/icon </metadata>
<g fill="#333333"><path d="m106.4 10.6c-5.7 1.4-11.1 5.9-13.5 11.1l-1.3 3h-8.5c-6.9 0-8.8 0.1-10.1 0.7-1.9 0.9-3 2.7-3 5.3v1.9h-9.3c-10.5 0-12.9 0.4-17.3 2.7-3.8 1.9-6.9 5.2-8.8 9.4l-1.4 3v163l1.4 3c2.9 6 8.5 10.4 15 11.6 1.5 0.3 18 0.5 42.9 0.5h40.5l-2.1-4.3c-1.2-2.3-2.4-5.4-2.8-6.7l-0.7-2.5-38.1-0.1c-35.6-0.1-38.1-0.2-39.6-1-0.8-0.5-1.9-1.5-2.4-2.3-0.9-1.4-0.9-2.9-0.9-79.7 0-77.7 0-78.2 0.9-79.8 1.8-2.9 3.8-3.4 13.8-3.2l8.7 0.1 0.2 5.4c0.2 5.2 0.3 5.5 1.5 6.7l1.2 1.3 38.1 0.1c42 0.1 39.2 0.3 41.1-2.8 0.7-1.2 0.9-2.4 0.9-6.2v-4.8l9.4 0.1c10.6 0.1 11 0.3 13 3.7 0.9 1.5 0.9 2.5 1.1 50.3l0.1 48.8h2c2 0 9.3 1.1 10.6 1.7 0.7 0.3 0.7-3.7 0.7-49 0-33.7-0.1-50.1-0.5-52-0.7-3.9-2.4-7.2-5.3-10.3-5-5.4-8.9-6.6-22.1-6.6h-9.2v-1.5c0-2.2-1.4-4.6-3.2-5.5-1.3-0.7-3-0.8-10-0.8h-8.4l-1.4-3.1c-2.5-5.4-8.1-9.9-14-11.3-2.4-0.7-6.3-0.6-9.2 0.1zm9.8 12.1c2.5 1.5 3.8 3.7 4.4 7.1 0.8 5.7 2.4 6.5 13.2 6.5h7.6v12.5h-60.2v-12.5h7.8c4.7 0 8.3-0.2 9.4-0.6 2-0.7 3.7-3.2 3.7-5.4 0-2.1 1.3-5 3.1-6.7 3-2.7 7.2-3.2 11-0.9z"/><path d="m87.2 74.6c-0.6 0.4-3.7 4.1-6.7 8.1-3.1 4.1-5.7 7.3-5.8 7.3-0.2-0.1-1.2-1.2-2.3-2.6-2.5-3.2-4.6-4.2-7.2-3.3-3.1 1.1-4.8 4.8-3.4 7.5 0.8 1.5 8.4 11.5 9.5 12.5 0.5 0.5 1.7 0.9 2.5 1.1 3.1 0.5 4.3-0.6 11.9-10.8 9.4-12.5 9.7-13 9.7-14.9 0.1-4.4-4.7-7.2-8.2-4.9z"/><path d="m101.6 88c-0.8 0.6-1.7 1.9-1.9 2.9-0.7 2.3 0.3 4.8 2.5 6.1 1.5 0.9 2.3 0.9 27.1 0.9 28.1 0 27.5 0 29-2.8 0.4-0.7 0.7-2.2 0.7-3.3 0-1.5-0.3-2.2-1.6-3.5l-1.6-1.6h-52.8l-1.4 1.3z"/><path d="m87.8 116.2c-1 0.4-3.1 2.9-7 8.1-3.1 4.1-5.8 7.5-6 7.5s-1.2-1.1-2.1-2.3c-2.2-3-3.2-3.7-5.5-3.7-3.7 0-6.2 2.6-5.7 6.1 0.2 1.3 1.4 3.3 4.9 8 2.6 3.4 5.2 6.4 5.9 6.7 1.9 0.9 4.4 0.6 5.8-0.5 0.7-0.6 4.9-5.9 9.4-11.9 7.5-10 8.1-11 8.1-12.8 0-2.2-1.2-4-3.2-5.1-1.7-0.9-2.7-0.9-4.6-0.1z"/><path d="m102.1 129.4c-2.1 1.3-3.1 3.8-2.5 6.1 0.3 1 1.2 2.3 1.9 2.9l1.4 1.2h52.8l1.6-1.6c1.3-1.3 1.6-1.9 1.6-3.7 0-1.3-0.3-2.7-0.7-3.3-1.7-2.5-1.3-2.5-29-2.5-24.8 0-25.6 0-27.1 0.9z"/><path d="m170.9 153c-9.8 1.2-18.9 5.4-26 12-4.9 4.5-7.8 8.5-10.6 14.2-3.6 7.4-4.4 11-4.4 20.4 0 9.5 0.7 12.6 4.5 20.4 5.8 11.6 15.7 20.2 27.8 24 23.2 7.3 48.2-4.7 57.2-27.2 2.5-6.2 3.3-11.5 3.1-19-0.3-7.8-1.2-11.9-4.5-18.5-6.3-13.1-18.3-22.5-32.4-25.5-3.8-0.9-10.9-1.3-14.7-0.8zm13.2 11.8c16.8 3.8 28.5 19.3 27.5 36.5-0.5 9.1-3.7 16.2-10.3 22.7-4.6 4.6-7.8 6.7-13.2 8.6-7.8 2.8-15.8 2.8-23.6 0-5.4-1.9-8.6-4-13.2-8.7-3.5-3.5-4.5-4.9-6.4-8.6-2.7-5.4-3.5-8.6-3.9-14.4-1-16.8 10.4-32.1 26.9-36.2 4.3-0.8 11.8-0.8 16.2 0.1z"/><path d="m190.2 181.3c-0.7 0.6-5 6-9.6 12.2s-8.6 11.4-8.9 11.8c-0.4 0.5-1.3-0.5-4.5-4.7-4.1-5.4-5.7-6.8-8.1-6.8-3.1 0-6.1 3.6-5.5 6.6 0.4 1.8 13.3 19 14.9 19.9 1.5 0.8 4.4 0.7 5.6-0.1 0.6-0.4 6.3-7.7 12.8-16.3 7.9-10.5 11.9-16.2 12.1-17.2 0.4-2-0.9-4.7-2.6-5.6-1.9-1.1-4.7-1-6.2 0.2z"/><path d="m87.1 158.5c-0.7 0.4-3.7 4-6.6 8-3 3.9-5.5 7.2-5.7 7.3s-1.2-1-2.1-2.4c-2.1-2.9-4.3-4.2-6.7-3.8-3.1 0.5-5.3 3.9-4.5 6.9 0.4 1.7 9 12.8 10.6 13.8 1.9 1.1 3.4 1.1 5.2 0 0.9-0.5 5-5.5 9.9-12 7.1-9.5 8.3-11.4 8.3-12.8 0-1.9-1-4-2.4-5-1.4-1.1-4.4-1.1-6 0z"/><path d="m103.5 170.4c-1.6 0.3-3.7 2.7-4 4.5-0.4 2.3 0.9 4.8 3 5.9 1.4 0.7 3.1 0.8 13.9 0.8h12.4l1.9-3.8c1-2.1 2.4-4.7 3.1-5.8l1.2-1.9h-15.2c-8.4 0.1-15.7 0.3-16.3 0.3z"/></g>
</svg>
