<?xml version="1.0" encoding="UTF-8"?>
<svg viewBox="0 0 13 14" xmlns="http://www.w3.org/2000/svg">
<path d="m8.7021 4.9855h-1.3306v5.5218h1.3306v-5.5218z" fill="currentColor"/>
<path d="m5.9624 4.9855h-1.3306v5.5218h1.3306v-5.5218z" fill="currentColor"/>
<path d="m12.978 2.1671c-0.0026-0.13651-0.0485-0.26866-0.1311-0.37737-0.0827-0.10871-0.1977-0.18835-0.3285-0.22743-0.0588-0.0245-0.121-0.0398-0.1845-0.04536h-3.5471c-0.13428-0.43905-0.40596-0.82341-0.77504-1.0965-0.36909-0.27308-0.8161-0.42047-1.2752-0.42047s-0.90613 0.14739-1.2752 0.42047-0.64076 0.65744-0.77504 1.0965h-3.5471c-0.05843 0.00118-0.11642 0.01033-0.17237 0.02722h-0.01512c-0.13844 0.04283-0.25828 0.13129-0.33999 0.25097-0.081709 0.11968-0.12046 0.26351-0.10994 0.40804 0.010524 0.14452 0.069703 0.28122 0.16789 0.3878 0.098184 0.10658 0.22958 0.17675 0.37276 0.19907l0.71064 9.7433c0.01084 0.3793 0.16395 0.7407 0.42893 1.0124 0.26497 0.2717 0.62244 0.4339 1.0014 0.4542h7.1034c0.3795-0.0196 0.7377-0.1814 1.0033-0.4532 0.2656-0.2717 0.4192-0.6336 0.43-1.0134l0.7077-9.7343c0.1525-0.02117 0.2923-0.09682 0.3935-0.21299 0.1011-0.11616 0.1568-0.26499 0.1568-0.41903zm-6.2415-0.95256c0.12959 2e-5 0.25776 0.0269 0.37643 0.07895s0.22526 0.12813 0.31304 0.22345h-1.3789c0.08755-0.09561 0.1941-0.17189 0.31282-0.22397 0.11873-0.05207 0.24701-0.07878 0.37665-0.07843zm3.5502 11.576h-7.1034c-0.08164 0-0.20865-0.1331-0.22377-0.3447l-0.70157-9.6345h8.957l-0.7015 9.6345c-0.0151 0.2116-0.1421 0.3447-0.2268 0.3447z" fill="currentColor"/>
</svg>
