<?xml version="1.0" encoding="UTF-8"?>
<svg fill="none" viewBox="0 0 17 16" xmlns="http://www.w3.org/2000/svg">
<g clip-path="url(#a)" fill="#F2F2F2">
<path d="m8.4837 1.4516c1.2919 0 2.5549 0.3831 3.6291 1.1009 1.0742 0.71775 1.9114 1.7379 2.4058 2.9315 0.4944 1.1936 0.6238 2.507 0.3717 3.7741-0.252 1.2671-0.8742 2.431-1.7877 3.3445-0.9135 0.9136-2.0774 1.5357-3.3445 1.7877-1.2671 0.2521-2.5805 0.1227-3.7741-0.3717-1.1936-0.4944-2.2138-1.3316-2.9315-2.4058s-1.1009-2.3371-1.1009-3.6291c0.00669-1.7304 0.69704-3.3879 1.9206-4.6115s2.8811-1.9139 4.6115-1.9206zm0-1.4516c-1.5776 0.0064539-3.118 0.48017-4.4266 1.3613-1.3086 0.88117-2.3268 2.1303-2.9261 3.5897-0.59926 1.4594-0.75272 3.0636-0.44098 4.6101 0.31174 1.5465 1.0747 2.966 2.1925 4.0793 1.1178 1.1133 2.5404 1.8704 4.0882 2.1758 1.5478 0.3054 3.1514 0.1454 4.6083-0.4598s2.7019-1.6285 3.5777-2.9407 1.3432-2.8544 1.3433-4.4321c0-1.0512-0.2076-2.092-0.6109-3.0628-0.4032-0.97076-0.9942-1.8523-1.739-2.5941-0.7449-0.74178-1.6288-1.3292-2.6012-1.7285s-2.0141-0.60262-3.0653-0.59832z"/>
<path d="m12.207 7.3813h-3.2116v-3.2116h-1.0814v3.2116h-3.2152v1.0814h3.2152v3.2116h1.0814v-3.2116h3.2116v-1.0814z"/>
</g>
<defs>
<clipPath id="a">
<rect transform="translate(.5)" width="16" height="16" fill="currentColor"/>
</clipPath>
</defs>
</svg>
