<?xml version="1.0" encoding="UTF-8"?>
<svg viewBox="0 0 125 37" xmlns="http://www.w3.org/2000/svg">
<path d="m113.26 30.398c-2.368 0-4.394-0.4687-6.08-1.4062-1.685-0.947-2.978-2.2633-3.878-3.9489-0.899-1.6951-1.349-3.66-1.349-5.8949 0-2.2348 0.45-4.195 1.349-5.8806 0.9-1.6951 2.193-3.0114 3.878-3.9489 1.686-0.94697 3.712-1.4204 6.08-1.4204 2.367 0 4.394 0.47348 6.079 1.4204 1.686 0.93751 2.979 2.2538 3.878 3.9489 0.9 1.6856 1.35 3.6458 1.35 5.8806 0 2.2349-0.45 4.1998-1.35 5.8949-0.899 1.6856-2.192 3.0019-3.878 3.9489-1.685 0.9375-3.712 1.4062-6.079 1.4062zm0.057-5.7954c0.662 0 1.235-0.2226 1.718-0.6676 0.483-0.4451 0.857-1.0796 1.122-1.9034 0.266-0.8239 0.398-1.804 0.398-2.9404 0-1.1458-0.132-2.1259-0.398-2.9403-0.265-0.8239-0.639-1.4584-1.122-1.9034-0.483-0.4451-1.056-0.6676-1.718-0.6676-0.701 0-1.303 0.2225-1.804 0.6676-0.502 0.445-0.886 1.0795-1.151 1.9034-0.265 0.8144-0.398 1.7945-0.398 2.9403 0 1.1364 0.133 2.1165 0.398 2.9404 0.265 0.8238 0.649 1.4583 1.151 1.9034 0.501 0.445 1.103 0.6676 1.804 0.6676z" fill="#5E60CE"/>
<path d="m84.863 30.284c-1.553 0-2.983-0.4072-4.2898-1.2216-1.2973-0.8144-2.339-2.0502-3.125-3.7074-0.7765-1.6572-1.1648-3.7453-1.1648-6.2642 0-2.6326 0.4072-4.7727 1.2216-6.4204 0.8239-1.6478 1.8845-2.8552 3.1819-3.6222 1.3068-0.76704 2.6799-1.1506 4.1193-1.1506 1.0795 0 2.0265 0.18939 2.8409 0.56818 0.8144 0.36931 1.4962 0.86647 2.0454 1.4915 0.5493 0.61552 0.9659 1.2926 1.25 2.0312h0.1137v-11.08h7.8409v29.091h-7.7841v-3.5795h-0.1705c-0.303 0.7386-0.7386 1.4015-1.3068 1.9886-0.5587 0.5776-1.2405 1.0369-2.0454 1.3778-0.7955 0.3315-1.7046 0.4972-2.7273 0.4972zm2.8977-6.0227c0.7197 0 1.3352-0.2084 1.8466-0.625 0.5208-0.4262 0.9186-1.0228 1.1932-1.7898 0.2841-0.7765 0.4261-1.6951 0.4261-2.7557 0-1.0795-0.142-2.0028-0.4261-2.7699-0.2746-0.7765-0.6724-1.3684-1.1932-1.7755-0.5114-0.4167-1.1269-0.625-1.8466-0.625s-1.3352 0.2083-1.8466 0.625c-0.5019 0.4071-0.8901 0.999-1.1647 1.7755-0.2652 0.7671-0.3978 1.6904-0.3978 2.7699 0 1.0796 0.1326 2.0076 0.3978 2.7841 0.2746 0.767 0.6628 1.3589 1.1647 1.7756 0.5114 0.4072 1.1269 0.6108 1.8466 0.6108z" fill="#5E60CE"/>
<path d="m62.476 30.398c-2.3674 0-4.3939-0.4687-6.0795-1.4062-1.6857-0.947-2.9783-2.2633-3.8779-3.9489-0.8996-1.6951-1.3494-3.66-1.3494-5.8949 0-2.2348 0.4498-4.195 1.3494-5.8806 0.8996-1.6951 2.1922-3.0114 3.8779-3.9489 1.6856-0.94697 3.7121-1.4204 6.0795-1.4204s4.3939 0.47348 6.0795 1.4204c1.6856 0.93751 2.9783 2.2538 3.8779 3.9489 0.8996 1.6856 1.3494 3.6458 1.3494 5.8806 0 2.2349-0.4498 4.1998-1.3494 5.8949-0.8996 1.6856-2.1923 3.0019-3.8779 3.9489-1.6856 0.9375-3.7121 1.4062-6.0795 1.4062zm0.0568-5.7954c0.6629 0 1.2358-0.2226 1.7188-0.6676 0.4829-0.4451 0.857-1.0796 1.1221-1.9034 0.2652-0.8239 0.3978-1.804 0.3978-2.9404 0-1.1458-0.1326-2.1259-0.3978-2.9403-0.2651-0.8239-0.6392-1.4584-1.1221-1.9034-0.483-0.4451-1.0559-0.6676-1.7188-0.6676-0.7007 0-1.3021 0.2225-1.804 0.6676-0.5019 0.445-0.8854 1.0795-1.1505 1.9034-0.2652 0.8144-0.3978 1.7945-0.3978 2.9403 0 1.1364 0.1326 2.1165 0.3978 2.9404 0.2651 0.8238 0.6486 1.4583 1.1505 1.9034 0.5019 0.445 1.1033 0.6676 1.804 0.6676z" fill="#4EA8DE"/>
<path d="m49 8.1818v5.6819h-14.375v-5.6819h14.375zm-11.591-5.2273h7.8409v20.028c0 0.303 0.0521 0.5587 0.1562 0.767 0.1042 0.1989 0.2652 0.3504 0.483 0.4546 0.2178 0.0947 0.4972 0.142 0.8381 0.142 0.2367 0 0.5113-0.0284 0.8238-0.0852 0.322-0.0568 0.5587-0.1042 0.7103-0.1421l1.1363 5.5114c-0.3504 0.1042-0.8522 0.232-1.5057 0.3835-0.6439 0.1515-1.4109 0.251-2.3011 0.2983-1.7992 0.0947-3.3096-0.0899-4.5312-0.554-1.2216-0.4734-2.1402-1.2168-2.7557-2.2301-0.6156-1.0132-0.9138-2.2822-0.8949-3.8068v-20.767z" fill="#4EA8DE"/>
<path d="m11.021 3.933c3.1257 3.9681 4.7942 8.8614 4.7337 13.882v1.1986l1.0313 0.6275c1.3324 0.8066 2.3262 2.0577 2.8001 3.5253-0.4161-0.3064-0.8514-0.5866-1.3034-0.8391l-2.75-1.544-0.4941 3.1163c-0.0428 0.2754-0.1002 0.5484-0.1719 0.8179h-7.7057c-0.11458-0.3525-0.20768-0.7051-0.29362-1.0717l-0.62304-2.8202-2.5352 1.4101c-0.42353 0.2368-0.83245 0.4982-1.2246 0.7826 0.48317-1.4506 1.4562-2.6946 2.7572-3.5253l0.98112-0.6275v-1.1139c0.0177-5.0008 1.7063-9.8569 4.8054-13.819h-0.0072zm0.0072-2.933c-0.1607 3.9e-4 -0.3159 0.05799-0.4369 0.16216l-0.0644 0.05641c-4.1296 4.5471-6.4228 10.427-6.4453 16.526-1.7524 1.1193-3.0496 2.8093-3.6648 4.7747-0.61524 1.9653-0.50943 4.081 0.29893 5.9774 0.85157-1.8516 2.2751-3.3913 4.0677-4.3996 0.17978 0.7667 0.4192 1.5186 0.71615 2.2492 0.03766 0.1404 0.12113 0.2647 0.23758 0.3539s0.25943 0.1382 0.40695 0.1396h9.9401c0.2005 0 0.401-0.1904 0.5013-0.4865 0.2898-0.6945 0.4918-1.4215 0.6015-2.1645 1.7961 1.004 3.2208 2.545 4.0677 4.3995 0.8572-1.887 0.9899-4.016 0.3735-5.992-0.6163-1.9761-1.9399-3.6648-3.725-4.753 0.0708-6.1355-2.2102-12.072-6.388-16.625-0.0623-0.06849-0.1384-0.12333-0.2235-0.16098-0.0852-0.03766-0.1774-0.05728-0.2707-0.05759h0.0072z" fill="#4EA8DE"/>
<path d="m11.021 17.16c-0.55 0-1.0878-0.1603-1.5454-0.4608-0.45765-0.3004-0.81471-0.7275-1.0262-1.2274-0.21147-0.5-0.26788-1.0503-0.16211-1.5818 0.10576-0.5314 0.36895-1.0201 0.75641-1.4045 0.38745-0.3844 0.88183-0.6473 1.4208-0.7555 0.539-0.1082 1.0984-0.0569 1.6078 0.1475 0.5094 0.2043 0.946 0.5525 1.2546 1.0008 0.3087 0.4482 0.4757 0.9764 0.4799 1.5179 0.0086 0.3509-0.0532 0.7001-0.1817 1.0275-0.1285 0.3275-0.3214 0.6268-0.5674 0.8808-0.2461 0.254-0.5406 0.4579-0.8667 0.5998-0.3261 0.142-0.6774 0.2193-1.0339 0.2275-0.0451 0.0071-0.091 0.0071-0.1361 0v0.0282z" fill="#4EA8DE"/>
<path d="m14.896 28.596c-0.1792-0.0057-0.3577 0.024-0.5251 0.0872s-0.3203 0.1586-0.4497 0.2808-0.2328 0.2685-0.304 0.4305c-0.0711 0.162-0.1087 0.3364-0.1106 0.5129v4.1598c0 0.3627 0.1464 0.7106 0.407 0.9672 0.2605 0.2565 0.6139 0.4006 0.9824 0.4006 0.3684 0 0.7218-0.1441 0.9824-0.4006 0.2605-0.2566 0.4069-0.6045 0.4069-0.9672v-4.1034c0.0057-0.1759-0.0242-0.351-0.0879-0.5154-0.0638-0.1643-0.1601-0.3145-0.2834-0.4418-0.1233-0.1274-0.2712-0.2292-0.4349-0.2997s-0.34-0.1082-0.5187-0.1109h-0.0644z" fill="#5E60CE"/>
<path d="m7.1613 28.596c-0.18224-0.0095-0.36455 0.0172-0.53609 0.0785s-0.3288 0.1559-0.46243 0.2783c-0.13363 0.1223-0.2409 0.2699-0.31542 0.4339s-0.11477 0.341-0.11836 0.5207v4.1598c0 0.3627 0.14638 0.7107 0.40693 0.9672s0.61393 0.4006 0.9824 0.4006 0.72185-0.1441 0.9824-0.4006 0.40692-0.6045 0.40692-0.9672v-4.1034c0.00572-0.1759-0.02416-0.351-0.08791-0.5154-0.06375-0.1643-0.16009-0.3145-0.2834-0.4418-0.12332-0.1274-0.27114-0.2292-0.43485-0.2997-0.16372-0.0705-0.34005-0.1082-0.51871-0.1109h-0.02148z" fill="#5E60CE"/>
<path d="m10.921 28.596c-0.1787-0.0038-0.3564 0.0272-0.523 0.0911-0.1665 0.0638-0.3186 0.1594-0.44766 0.2812-0.12902 0.1218-0.2324 0.2674-0.30424 0.4285-0.07185 0.1611-0.11074 0.3346-0.11446 0.5106v5.732c0 0.3628 0.14637 0.7107 0.40692 0.9672 0.26054 0.2565 0.61394 0.4006 0.98244 0.4006 0.3684 0 0.7218-0.1441 0.9824-0.4006 0.2605-0.2565 0.4069-0.6044 0.4069-0.9672v-5.6404c0.0057-0.1758-0.0242-0.351-0.0879-0.5153-0.0638-0.1644-0.1601-0.3146-0.2834-0.4419s-0.2712-0.2292-0.4349-0.2997-0.34-0.1082-0.5187-0.1109l-0.0644-0.0352z" fill="#5E60CE"/>
</svg>
