<?xml version="1.0" encoding="UTF-8"?>
<svg fill="none" viewBox="0 0 126 48" xmlns="http://www.w3.org/2000/svg">
<g clip-path="url(#a)">
<path d="m11.022 12.933c3.1257 3.9681 4.7943 8.8614 4.7338 13.882v1.1986l1.0312 0.6275c1.3325 0.8066 2.3262 2.0577 2.8001 3.5253-0.4161-0.3064-0.8514-0.5866-1.3033-0.8391l-2.75-1.544-0.4942 3.1163c-0.0428 0.2754-0.1002 0.5484-0.1719 0.8179h-7.7057c-0.11459-0.3525-0.20769-0.7051-0.29362-1.0717l-0.62305-2.8202-2.5352 1.4101c-0.42353 0.2368-0.83245 0.4982-1.2246 0.7826 0.48317-1.4506 1.4562-2.6946 2.7572-3.5253l0.98112-0.6275v-1.1139c0.0177-5.0008 1.7063-9.8569 4.8053-13.819h-0.0072zm0.0072-2.933c-0.1607 4e-4 -0.3159 0.058-0.4369 0.1622l-0.0644 0.0564c-4.1296 4.547-6.4227 10.427-6.4453 16.526-1.7524 1.1193-3.0496 2.8093-3.6648 4.7747-0.61524 1.9653-0.50943 4.081 0.29893 5.9774 0.85157-1.8516 2.2751-3.3913 4.0677-4.3996 0.17978 0.7667 0.4192 1.5186 0.71615 2.2492 0.03766 0.1404 0.12113 0.2647 0.23758 0.3539s0.25943 0.1382 0.40695 0.1396h9.9401c0.2005 0 0.401-0.1904 0.5013-0.4865 0.2898-0.6945 0.4918-1.4215 0.6015-2.1645 1.7961 1.004 3.2208 2.545 4.0678 4.3995 0.8571-1.887 0.9898-4.016 0.3734-5.992-0.6163-1.9761-1.9399-3.6648-3.725-4.753 0.0708-6.1355-2.2102-12.072-6.388-16.625-0.0622-0.0685-0.1384-0.1234-0.2235-0.161-0.0851-0.0377-0.1773-0.0573-0.2707-0.0576h0.0072z" fill="#4EA8DE"/>
<path d="m11.022 26.16c-0.5501 0-1.0878-0.1603-1.5455-0.4608-0.45765-0.3004-0.81471-0.7275-1.0262-1.2274-0.21146-0.5-0.26787-1.0503-0.16211-1.5818 0.10576-0.5314 0.36896-1.0201 0.75641-1.4045 0.38746-0.3844 0.88183-0.6473 1.4208-0.7555 0.539-0.1082 1.0984-0.0569 1.6078 0.1475 0.5094 0.2043 0.946 0.5525 1.2547 1.0008 0.3086 0.4482 0.4756 0.9764 0.4799 1.5179 0.0085 0.3509-0.0532 0.7001-0.1818 1.0275-0.1285 0.3275-0.3213 0.6268-0.5674 0.8808s-0.5406 0.4579-0.8667 0.5998c-0.3261 0.142-0.6774 0.2193-1.0339 0.2275-0.045 0.0071-0.091 0.0071-0.136 0v0.0282z" fill="#4EA8DE"/>
<path d="m14.896 37.596c-0.1792-0.0057-0.3577 0.024-0.5251 0.0872s-0.3203 0.1586-0.4497 0.2808-0.2327 0.2685-0.3039 0.4305-0.1088 0.3364-0.1106 0.5129v4.1598c0 0.3627 0.1464 0.7106 0.4069 0.9672 0.2606 0.2565 0.6139 0.4006 0.9824 0.4006s0.7219-0.1441 0.9824-0.4006c0.2606-0.2566 0.4069-0.6045 0.4069-0.9672v-4.1034c0.0058-0.1759-0.0241-0.351-0.0879-0.5154-0.0637-0.1643-0.1601-0.3145-0.2834-0.4418-0.1233-0.1274-0.2711-0.2292-0.4348-0.2997s-0.3401-0.1082-0.5187-0.1109h-0.0645z" fill="#5E60CE"/>
<path d="m7.1615 37.596c-0.18223-0.0094-0.36454 0.0172-0.53608 0.0785s-0.32881 0.156-0.46244 0.2783c-0.13363 0.1224-0.24089 0.2699-0.31541 0.4339s-0.11477 0.3411-0.11836 0.5207v4.1599c0 0.3627 0.14637 0.7106 0.40692 0.9671s0.61393 0.4007 0.9824 0.4007 0.72185-0.1442 0.9824-0.4007 0.40692-0.6044 0.40692-0.9671v-4.1035c0.00573-0.1758-0.02416-0.351-0.08791-0.5153-0.06375-0.1644-0.16009-0.3146-0.2834-0.4419-0.12332-0.1273-0.27114-0.2292-0.43485-0.2996-0.16371-0.0705-0.34004-0.1082-0.51871-0.111h-0.02148z" fill="#5E60CE"/>
<path d="m10.921 37.596c-0.1787-0.0038-0.3564 0.0272-0.5229 0.0911-0.1666 0.0638-0.3187 0.1594-0.44772 0.2812-0.12901 0.1218-0.2324 0.2674-0.30424 0.4285s-0.11074 0.3346-0.11446 0.5106v5.732c0 0.3628 0.14638 0.7107 0.40693 0.9672 0.26059 0.2565 0.61389 0.4006 0.98239 0.4006s0.7219-0.1441 0.9824-0.4006c0.2606-0.2565 0.4069-0.6044 0.4069-0.9672v-5.6404c0.0058-0.1758-0.0241-0.351-0.0879-0.5153-0.0637-0.1644-0.1601-0.3146-0.2834-0.4419s-0.2711-0.2292-0.4348-0.2997-0.3401-0.1082-0.5187-0.1109l-0.0645-0.0352z" fill="#5E60CE"/>
</g>
<defs>
<clipPath id="a">
<rect transform="translate(0 10)" width="22" height="36" fill="#fff"/>
</clipPath>
</defs>
</svg>
